<?xml version="1.0" encoding="iso-8859-1"?>
<!-- Generator: Adobe Illustrator 19.0.0, SVG Export Plug-In . SVG Version: 6.00 Build 0)  -->
<svg version="1.1" id="Layer_1" xmlns="http://www.w3.org/2000/svg" xmlns:xlink="http://www.w3.org/1999/xlink" x="0px" y="0px"
	 viewBox="0 0 512 512" style="enable-background:new 0 0 512 512;" xml:space="preserve">
<g>
	<g>
		<path d="M425.305,64.142C380.146,24.245,320.852,0,256,0C174.29,0,101.41,38.488,54.508,98.279
			c-1.245,1.587-0.661,3.945,1.182,4.763c42.451,18.817,99.486,29.453,159.472,29.453c104.502,0,181.857-30.942,210.422-63.952
			C426.706,67.245,426.59,65.278,425.305,64.142z"/>
	</g>
</g>
<g>
	<g>
		<path d="M486.519,356.831c-0.016,0.001-0.033,0.001-0.049,0.001c-77.194,0-150.395,20.699-206.118,58.286
			c-37.364,25.201-63.173,56.104-74.544,88.249c-0.64,1.811,0.451,3.789,2.338,4.147C223.653,510.458,239.649,512,256,512
			c103.675,0,193.142-61.955,233.353-150.78C490.28,359.173,488.766,356.833,486.519,356.831z"/>
	</g>
</g>
<g>
	<g>
		<path d="M460.481,102.16c-1.149-1.524-3.414-1.661-4.727-0.276c-43.445,45.789-135.776,75.394-240.592,75.394
			c-69.062,0-135.419-13.187-184.357-36.398c-1.537-0.728-3.378-0.115-4.136,1.408C9.603,176.562,0,215.182,0,256
			c0,106.715,65.638,198.386,158.66,236.769c1.672,0.69,3.56-0.209,4.139-1.923c14.218-42.109,46.226-81.635,92.511-112.853
			c63.043-42.523,145.138-65.942,231.16-65.942c5.562,0,11.11,0.107,16.647,0.294c1.506,0.051,2.844-0.973,3.162-2.448
			C510.019,292.515,512,274.486,512,256C512,198.305,492.805,145.017,460.481,102.16z"/>
	</g>
</g>
<g>
</g>
<g>
</g>
<g>
</g>
<g>
</g>
<g>
</g>
<g>
</g>
<g>
</g>
<g>
</g>
<g>
</g>
<g>
</g>
<g>
</g>
<g>
</g>
<g>
</g>
<g>
</g>
<g>
</g>
</svg>
