<?xml version="1.0" encoding="iso-8859-1"?>
<!-- Generator: Adobe Illustrator 19.0.0, SVG Export Plug-In . SVG Version: 6.00 Build 0)  -->
<svg version="1.1" id="Capa_1" xmlns="http://www.w3.org/2000/svg" xmlns:xlink="http://www.w3.org/1999/xlink" x="0px" y="0px"
	 viewBox="0 0 511.95 511.95" style="enable-background:new 0 0 511.95 511.95;" xml:space="preserve">
<circle style="fill:#94E061;" cx="255.95" cy="255.951" r="255.95"/>
<path style="fill:#E9EFF4;" d="M183.549,501.433c-16.153-4.749-31.833-11.095-46.791-18.955
	c17.472-50.541,19.986-112.496-13.691-166.529c-28.989-46.503-76.336-73.905-121.778-85.928c1.628-15.782,4.708-31.359,9.189-46.523
	c62.779,9.189,124.322,51.921,160.677,118.883C207.408,369.158,209.798,443.835,183.549,501.433z"/>
<path style="fill:#70CF3D;" d="M378.067,480.891c-114.196,61.996-254.723,28.103-329.05-74.276
	c78.304,69.681,194.9,86.576,292.324,33.687c124.23-67.446,170.258-222.828,102.812-347.058
	c-5.449-10.034-11.466-19.553-18.007-28.546c21.541,19.161,40.187,42.33,54.744,69.136
	C548.336,258.063,502.297,413.445,378.067,480.891z"/>
<path style="fill:#D3DCE2;" d="M194.556,470.141c-2.792,10.858-6.469,21.325-11.013,31.287c-1.01-0.299-2.019-0.597-3.018-0.906
	c-8.393-2.596-16.661-5.606-24.759-9.038c-1.393-0.591-19.163-8.577-19.014-9.011c2.534-7.335,4.759-14.917,6.593-22.674
	C159.994,464.97,177.157,468.441,194.556,470.141z"/>
<path style="fill:#E9EFF4;" d="M510.755,280.315c-1.484,15.484-4.378,30.772-8.633,45.668
	c-61.358-10.405-121.057-52.725-156.629-118.254c-35.665-65.695-38.57-139.023-13.65-196.219
	c15.051,4.677,29.669,10.724,43.659,18.1c-14.67,44.246-17.678,98.197,4.832,147.501
	C406.624,234.729,459.236,266.83,510.755,280.315z"/>
<g>
	<path style="fill:#D3DCE2;" d="M510.75,280.31c-0.574,5.99-1.346,11.723-2.308,17.647c-0.362,2.229-5.885,28.096-6.325,28.021
		c-15.535-2.637-30.967-7.314-45.925-13.908c6.119-15.02,10.807-30.586,14-46.482C483.45,271.883,497.141,276.745,510.75,280.31z"/>
	<path style="fill:#D3DCE2;" d="M510.75,280.31c-0.186,1.937-0.392,3.863-0.618,5.79c-0.113,0.968-0.237,1.927-0.361,2.895
		c-0.134,0.958-0.258,1.926-0.402,2.884c-0.113,0.824-0.237,1.648-0.36,2.473c-0.175,1.205-0.371,2.4-0.567,3.606
		c-0.206,1.185-0.412,2.38-0.628,3.564c-0.062,0.34-0.124,0.68-0.186,1.02c-0.227,1.226-0.463,2.452-0.711,3.678
		c0,0.01,0,0.021-0.01,0.031c-0.257,1.298-0.525,2.586-0.814,3.874c-0.165,0.803-0.35,1.607-0.536,2.411
		c-0.165,0.731-0.33,1.463-0.505,2.194c-0.216,0.948-0.453,1.896-0.69,2.833c-0.237,0.938-0.474,1.875-0.721,2.813
		c-0.484,1.875-0.989,3.74-1.525,5.604c-15.535-2.637-30.967-7.314-45.925-13.908c6.119-15.02,10.807-30.586,14-46.482
		C483.45,271.883,497.141,276.745,510.75,280.31z"/>
</g>
<g>
</g>
<g>
</g>
<g>
</g>
<g>
</g>
<g>
</g>
<g>
</g>
<g>
</g>
<g>
</g>
<g>
</g>
<g>
</g>
<g>
</g>
<g>
</g>
<g>
</g>
<g>
</g>
<g>
</g>
</svg>
