<?xml version="1.0"?>
<svg xmlns="http://www.w3.org/2000/svg" id="icons" enable-background="new 0 0 64 64" height="512px" viewBox="0 0 64 64" width="512px" class=""><g><g><g><circle cx="42.99" cy="55" fill="#94c1ff" r="4" data-original="#94C1FF" class="active-path" style="fill:#E4CE37" data-old_color="#94c1ff"/></g><g><circle cx="43" cy="43" fill="#94c1ff" r="4" data-original="#94C1FF" class="active-path" style="fill:#E4CE37" data-old_color="#94c1ff"/></g><g><path d="m28.5 43.01h3v2.99h-3z" fill="#fff" data-original="#FFF" class=""/></g><g><path d="m32.5 46v17h-5v-17h1 3z" fill="#94c1ff" data-original="#94C1FF" class="active-path" style="fill:#E4CE37" data-old_color="#94c1ff"/></g><g><path d="m20 22c0 .68.07 1.35.2 2 .3 1.48.92 2.84 1.8 4 .56.76 1.24 1.43 2 1.99v.01c1.16.87 2.52 1.5 4 1.8.64.13 1.31.2 2 .2s1.36-.07 2-.2c1.48-.3 2.84-.93 4-1.8v-.01c.76-.56 1.44-1.23 2-1.99.88-1.16 1.5-2.52 1.8-4 .13-.65.2-1.32.2-2v-2-4-2c0-.69-.07-1.36-.2-2-.3-1.48-.93-2.84-1.8-4h-.01c-.56-.76-1.23-1.43-1.99-1.99v-.01c-1.16-.87-2.52-1.5-4-1.8-.64-.13-1.31-.2-2-.2s-1.36.07-2 .2c-1.48.3-2.84.93-4 1.81-.76.56-1.43 1.23-1.99 1.99h-.01c-.87 1.16-1.5 2.52-1.8 4-.13.64-.2 1.31-.2 2v2 4zm10 13c-2.47 0-4.78-.689-6.74-1.88-.029-.01-.05-.03-.08-.05-3.71-2.29-6.18-6.39-6.18-11.07v-8c0-7.18 5.82-13 13-13s13 5.82 13 13v8c0 4.67-2.47 8.77-6.17 11.07-1.98 1.22-4.32 1.93-6.83 1.93z" fill="#fff" data-original="#FFF" class=""/></g></g><g><g><g><path d="m43 15c-.553 0-1-.448-1-1 0-6.617-5.383-12-12-12s-12 5.383-12 12c0 .552-.447 1-1 1s-1-.448-1-1c0-7.72 6.28-14 14-14s14 6.28 14 14c0 .552-.447 1-1 1z" fill="#116fff" data-original="#116FFF" class="" style="fill:#0191D2" data-old_color="#116fff"/></g><g><path d="m40 15c-.553 0-1-.448-1-1 0-4.962-4.037-9-9-9s-9 4.038-9 9c0 .552-.447 1-1 1s-1-.448-1-1c0-6.065 4.935-11 11-11s11 4.935 11 11c0 .552-.447 1-1 1z" fill="#116fff" data-original="#116FFF" class="" style="fill:#0191D2" data-old_color="#116fff"/></g><g><path d="m30 35.999c-7.72 0-14-6.28-14-13.999 0-.552.447-1 1-1s1 .448 1 1c0 6.616 5.383 11.999 12 11.999s12-5.383 12-11.999c0-.552.447-1 1-1s1 .448 1 1c0 7.719-6.28 13.999-14 13.999z" fill="#116fff" data-original="#116FFF" class="" style="fill:#0191D2" data-old_color="#116fff"/></g><g><path d="m30 33c-6.065 0-11-4.935-11-11 0-.552.447-1 1-1s1 .448 1 1c0 4.962 4.037 9 9 9s9-4.038 9-9c0-.552.447-1 1-1s1 .448 1 1c0 6.065-4.935 11-11 11z" fill="#116fff" data-original="#116FFF" class="" style="fill:#0191D2" data-old_color="#116fff"/></g><g><path d="m17.002 23c-.553 0-1-.448-1-1v-8c0-.552.447-1 1-1s1 .448 1 1v8c0 .552-.447 1-1 1z" fill="#116fff" data-original="#116FFF" class="" style="fill:#0191D2" data-old_color="#116fff"/></g><g><path d="m43 23c-.553 0-1-.448-1-1v-8c0-.552.447-1 1-1s1 .448 1 1v8c0 .552-.447 1-1 1z" fill="#116fff" data-original="#116FFF" class="" style="fill:#0191D2" data-old_color="#116fff"/></g><g><path d="m20 23c-.553 0-1-.448-1-1v-8c0-.552.447-1 1-1s1 .448 1 1v8c0 .552-.447 1-1 1z" fill="#116fff" data-original="#116FFF" class="" style="fill:#0191D2" data-old_color="#116fff"/></g><g><path d="m24 31c-.553 0-1-.448-1-1v-23.995c0-.552.447-1 1-1s1 .448 1 1v23.995c0 .552-.447 1-1 1z" fill="#116fff" data-original="#116FFF" class="" style="fill:#0191D2" data-old_color="#116fff"/></g><g><path d="m28 32.799c-.553 0-1-.448-1-1v-27.598c0-.552.447-1 1-1s1 .448 1 1v27.598c0 .552-.447 1-1 1z" fill="#116fff" data-original="#116FFF" class="" style="fill:#0191D2" data-old_color="#116fff"/></g><g><path d="m32 32.799c-.553 0-1-.448-1-1v-27.598c0-.552.447-1 1-1s1 .448 1 1v27.598c0 .552-.447 1-1 1z" fill="#116fff" data-original="#116FFF" class="" style="fill:#0191D2" data-old_color="#116fff"/></g><g><path d="m36 31c-.553 0-1-.448-1-1v-24c0-.552.447-1 1-1s1 .448 1 1v24c0 .552-.447 1-1 1z" fill="#116fff" data-original="#116FFF" class="" style="fill:#0191D2" data-old_color="#116fff"/></g><g><path d="m40 23c-.553 0-1-.448-1-1v-8c0-.552.447-1 1-1s1 .448 1 1v8c0 .552-.447 1-1 1z" fill="#116fff" data-original="#116FFF" class="" style="fill:#0191D2" data-old_color="#116fff"/></g><g><path d="m38 29h-16c-.553 0-1-.448-1-1s.447-1 1-1h16c.553 0 1 .448 1 1s-.447 1-1 1z" fill="#116fff" data-original="#116FFF" class="" style="fill:#0191D2" data-old_color="#116fff"/></g><g><path d="m39.801 25h-19.6c-.553 0-1-.448-1-1s.447-1 1-1h19.6c.553 0 1 .448 1 1s-.447 1-1 1z" fill="#116fff" data-original="#116FFF" class="" style="fill:#0191D2" data-old_color="#116fff"/></g><g><path d="m40 21h-20c-.553 0-1-.448-1-1s.447-1 1-1h20c.553 0 1 .448 1 1s-.447 1-1 1z" fill="#116fff" data-original="#116FFF" class="" style="fill:#0191D2" data-old_color="#116fff"/></g><g><path d="m40 17h-20c-.553 0-1-.448-1-1s.447-1 1-1h20c.553 0 1 .448 1 1s-.447 1-1 1z" fill="#116fff" data-original="#116FFF" class="" style="fill:#0191D2" data-old_color="#116fff"/></g><g><path d="m39.801 13h-19.6c-.553 0-1-.448-1-1s.447-1 1-1h19.6c.553 0 1 .448 1 1s-.447 1-1 1z" fill="#116fff" data-original="#116FFF" class="" style="fill:#0191D2" data-old_color="#116fff"/></g><g><path d="m38 9h-16c-.553 0-1-.448-1-1s.447-1 1-1h16c.553 0 1 .448 1 1s-.447 1-1 1z" fill="#116fff" data-original="#116FFF" class="" style="fill:#0191D2" data-old_color="#116fff"/></g><g><path d="m31.5 47c-.553 0-1-.447-1-1v-2.998c0-.553.447-1 1-1s1 .447 1 1v2.998c0 .553-.447 1-1 1z" fill="#116fff" data-original="#116FFF" class="" style="fill:#0191D2" data-old_color="#116fff"/></g><g><path d="m28.502 47c-.553 0-1-.447-1-1v-2.998c0-.553.447-1 1-1s1 .447 1 1v2.998c0 .553-.447 1-1 1z" fill="#116fff" data-original="#116FFF" class="" style="fill:#0191D2" data-old_color="#116fff"/></g><g><path d="m32.5 64h-4.998c-.553 0-1-.447-1-1v-17c0-.553.447-1 1-1h4.998c.553 0 1 .447 1 1v17c0 .553-.447 1-1 1zm-3.998-2h2.998v-15h-2.998z" fill="#116fff" data-original="#116FFF" class="" style="fill:#0191D2" data-old_color="#116fff"/></g><g><path d="m31.5 44.002c-.553 0-1-.447-1-1 0-4.17 2.025-8.105 5.419-10.527.114-.082.232-.163.351-.243.458-.308 1.079-.184 1.388.274.308.459.185 1.08-.274 1.388-.101.067-.201.136-.3.207-2.87 2.048-4.583 5.375-4.583 8.9-.001.554-.448 1.001-1.001 1.001z" fill="#116fff" data-original="#116FFF" class="" style="fill:#0191D2" data-old_color="#116fff"/></g><g><path d="m28.502 44.002c-.553 0-1-.447-1-1 0-3.525-1.713-6.853-4.581-8.898-.101-.073-.201-.142-.302-.209-.459-.308-.582-.929-.274-1.388.309-.458.929-.582 1.388-.274.118.08.236.161.353.245 3.392 2.419 5.417 6.355 5.417 10.525-.001.552-.448.999-1.001.999z" fill="#116fff" data-original="#116FFF" class="" style="fill:#0191D2" data-old_color="#116fff"/></g><g><path d="m31.5 44.002h-2.998c-.553 0-1-.447-1-1s.447-1 1-1h2.998c.553 0 1 .447 1 1s-.447 1-1 1z" fill="#116fff" data-original="#116FFF" class="" style="fill:#0191D2" data-old_color="#116fff"/></g></g><g><path d="m42.99 59.995c-2.756 0-4.998-2.243-4.998-5-.001-1.335.518-2.59 1.462-3.534.943-.944 2.199-1.465 3.534-1.465 1.34 0 2.596.52 3.539 1.464s1.463 2.199 1.463 3.535c0 2.757-2.243 5-5 5zm.004-7.999c-.807 0-1.56.312-2.126.878-.565.566-.877 1.319-.876 2.12 0 1.655 1.345 3.001 2.998 3.001 1.654 0 3-1.346 3-3 0-1.653-1.344-2.999-2.996-2.999z" fill="#116fff" data-original="#116FFF" class="" style="fill:#0191D2" data-old_color="#116fff"/></g><g><path d="m43 47.992h-.002c-1.336 0-2.592-.521-3.536-1.465-.943-.944-1.463-2.2-1.462-3.536 0-2.756 2.243-4.998 5-4.998s5 2.243 5 5-2.243 4.999-5 4.999zm0-7.999c-1.654 0-3 1.346-3 2.999-.001.802.311 1.556.877 2.121.566.567 1.319.879 2.121.879 1.655 0 3.002-1.346 3.002-2.999 0-1.654-1.346-3-3-3z" fill="#116fff" data-original="#116FFF" class="" style="fill:#0191D2" data-old_color="#116fff"/></g></g></g> </svg>
